<svg width="637" height="210" viewBox="0 0 637 210" fill="none" xmlns="http://www.w3.org/2000/svg">
<path d="M636.396 59.1415C636.059 60.7664 635.723 62.3914 635.382 64.0164C634.507 68.1916 633.626 72.3713 632.746 76.5466C631.762 81.204 630.779 85.8615 629.79 90.5144C628.91 94.6466 628.006 98.7787 627.13 102.91C626.147 107.568 625.181 112.229 624.198 116.888C623.334 120.984 622.448 125.073 621.578 129.165C620.419 134.622 619.26 140.083 618.1 145.541C617.845 146.744 617.583 147.948 617.339 149.156C617.208 149.799 616.719 149.734 616.253 149.734C614.344 149.734 612.44 149.734 610.536 149.734C604.483 149.734 598.425 149.734 592.373 149.734C591.066 149.734 590.97 149.568 591.253 148.273C592.424 142.986 593.584 137.698 594.72 132.402C595.84 127.188 596.931 121.966 598.022 116.744C599.722 108.632 601.398 100.512 603.12 92.4006C604.245 87.1043 605.455 81.8251 606.575 76.5288C607.575 71.7934 608.706 67.0706 608.451 62.1653C608.195 57.1516 605.666 55.079 601.057 54.8405C594.874 54.5187 590.668 57.5861 587.622 62.639C585.167 66.7102 583.991 71.2154 583.036 75.8037C582.269 79.5012 581.467 83.1898 580.683 86.8829C579.604 91.9794 578.535 97.0796 577.444 102.176C576.569 106.308 575.654 110.435 574.779 114.572C573.795 119.229 572.846 123.896 571.857 128.549C570.812 133.441 569.709 138.324 568.652 143.216C568.249 145.062 567.896 146.918 567.544 148.773C567.425 149.429 567.169 149.75 566.407 149.75C558.281 149.724 550.154 149.729 542.021 149.747C541.249 149.747 541.016 149.602 541.203 148.752C542.317 143.659 543.34 138.55 544.431 133.454C545.477 128.561 546.596 123.682 547.636 118.786C548.711 113.729 549.716 108.654 550.779 103.592C551.546 99.9384 552.353 96.2929 553.126 92.6392C554.126 87.9431 555.098 83.2418 556.11 78.5495C557.167 73.6573 558.275 68.7779 559.315 63.8812C560.389 58.8242 561.395 53.7498 562.463 48.6879C563.395 44.2742 564.373 39.8639 565.316 35.4542C566.322 30.7617 567.305 26.0607 568.306 21.3643C569.272 16.8282 570.249 12.2966 571.221 7.76506C571.687 5.59726 572.192 3.44231 572.59 1.26123C572.716 0.605181 572.971 0.422741 573.579 0.427045C581.831 0.435782 590.088 0.435782 598.34 0.427045C598.971 0.427045 599.062 0.553056 598.92 1.23086C597.397 8.24781 595.959 15.286 594.459 22.3071C593.413 27.199 592.299 32.0784 591.236 36.9704C590.429 40.6985 589.663 44.4346 588.884 48.1712C588.838 48.4012 588.878 48.6488 588.878 49.1225C590.163 47.706 591.231 46.3853 592.345 45.1258C594.175 43.0532 596.278 41.3279 598.545 39.7948C602.387 37.1964 606.632 35.5975 611.275 35.0893C616.009 34.572 620.68 34.6156 625.193 36.3534C630.756 38.4995 634.286 42.4753 635.888 48.1927C636.087 48.8839 635.951 49.6483 636.389 50.2783C636.396 53.237 636.396 56.1873 636.396 59.1415Z" fill="white"/>
<path d="M50.0637 37.6309C49.2624 41.4367 48.4895 45.1518 47.6769 49.0358C48.7453 48.4924 49.1715 47.5802 49.7512 46.8805C54.4567 41.2457 60.3728 37.5612 67.4995 35.806C72.0056 34.6983 76.5754 34.5719 81.1782 35.0847C84.5713 35.4626 87.7365 36.3363 90.6123 38.3216C94.2325 40.8157 96.8976 45.0691 96.8467 49.57C97.9374 48.2884 98.7902 47.0023 99.8185 45.8509C101.791 43.635 104.069 41.8106 106.502 40.1681C110.878 37.2179 115.697 35.5453 120.982 35.0762C126.637 34.5765 132.246 34.5504 137.599 36.649C143.453 38.9432 147.414 42.9835 148.665 49.3661C149.431 53.2716 148.875 57.0603 148.045 60.8666C147.028 65.5023 146.073 70.1552 145.084 74.8C144.328 78.3624 143.561 81.9209 142.8 85.484C141.868 89.8889 140.935 94.2945 140.004 98.6962C138.31 106.747 136.633 114.801 134.911 122.848C133.604 128.926 132.155 134.974 130.911 141.065C130.388 143.633 129.802 146.192 129.336 148.769C129.234 149.338 129.08 149.742 128.336 149.738C119.954 149.712 111.577 149.72 103.189 149.712C103.115 149.712 103.041 149.651 102.984 149.625C103.973 144.854 104.962 140.088 105.968 135.326C106.757 131.603 107.582 127.888 108.372 124.165C109.355 119.52 110.315 114.867 111.299 110.223C112.247 105.778 113.225 101.342 114.174 96.9014C114.998 93.0173 115.805 89.1288 116.635 85.2492C117.425 81.5257 118.209 77.8022 119.033 74.0875C119.959 69.9249 120.573 65.7021 120.136 61.4701C119.692 57.2558 117.555 55.1878 112.879 54.8489C110.253 54.6619 107.695 54.9877 105.206 56.0478C102.325 57.2779 100.171 59.2326 98.5344 61.831C95.4544 66.7362 94.1244 72.2495 92.9993 77.8371C92.2433 81.5644 91.3797 85.2752 90.5951 88.9981C89.6062 93.6429 88.6516 98.2959 87.6684 102.941C86.7934 107.064 85.8898 111.183 85.0084 115.306C83.9457 120.31 82.8944 125.316 81.826 130.317C80.8485 134.879 79.8431 139.432 78.8599 143.99C78.5073 145.588 78.0924 147.183 77.8767 148.799C77.7571 149.664 77.388 149.733 76.6829 149.733C69.0618 149.716 61.4468 149.721 53.8259 149.721C51.4277 149.721 51.4959 149.734 52.0187 147.357C53.0246 142.76 53.9339 138.137 54.9114 133.532C55.7013 129.809 56.5367 126.098 57.3266 122.375C58.3098 117.73 59.2589 113.077 60.2477 108.432C61.1229 104.309 62.0322 100.195 62.9074 96.0715C63.8964 91.4274 64.851 86.7782 65.8399 82.1297C66.6182 78.4448 67.4365 74.7695 68.1983 71.0853C68.5623 69.3476 68.8066 67.5965 68.9142 65.8106C69.0166 64.1598 69.0338 62.5216 68.7551 60.9057C68.1868 57.6427 66.0442 55.7963 62.9301 55.1747C59.2418 54.4365 55.6047 54.6489 52.1266 56.3306C48.876 57.9034 46.8869 60.5709 45.5286 63.7512C43.1418 69.3558 42.1928 75.3513 40.9311 81.2605C39.7888 86.5828 38.5783 91.8836 37.4474 97.2097C36.2937 102.658 35.2139 108.124 34.0717 113.572C33.1397 118.017 32.1508 122.448 31.1961 126.889C30.372 130.773 29.565 134.661 28.7466 138.545C27.9851 142.152 27.2179 145.753 26.4564 149.355C26.3143 150.033 25.7744 149.703 25.4278 149.703C21.2393 149.729 17.0453 149.721 12.8569 149.721C8.62304 149.721 4.40054 149.721 0.0302734 149.721C0.950936 145.501 1.88294 141.374 2.75246 137.233C3.82086 132.185 4.82677 127.123 5.8838 122.079C6.75328 117.956 7.67397 113.842 8.55483 109.718C9.70849 104.314 10.828 98.9043 11.9817 93.4995C12.8569 89.3763 13.7662 85.2619 14.6414 81.1393C15.6302 76.4939 16.585 71.841 17.5681 67.1968C18.5115 62.7562 19.4947 58.3204 20.4438 53.8755C21.2734 49.9916 22.0805 46.1031 22.8988 42.2186C23.1659 40.9369 23.5581 39.6814 23.6831 38.3652C23.757 37.6003 24.3764 37.6088 25.0015 37.6134C32.5373 37.6264 40.073 37.6219 47.6087 37.6219C48.4043 37.6309 49.1999 37.6309 50.0637 37.6309Z" fill="white"/>
<path d="M227.857 37.631C227.01 41.6022 226.187 45.4731 225.357 49.344C226.686 47.5887 228.164 45.9638 229.676 44.3955C231.66 42.3404 233.927 40.6073 236.388 39.1081C239.951 36.9403 243.787 35.6581 247.913 35.0677C250.357 34.7153 252.806 34.7244 255.221 34.8977C259.677 35.2241 263.854 36.4667 267.314 39.5426C270.844 42.6793 272.628 46.5638 273.163 51.2166C273.702 55.9612 272.93 60.5143 271.912 65.0981C270.799 70.1381 269.855 75.213 268.792 80.2612C267.758 85.1452 266.627 90.0062 265.587 94.8895C264.513 99.934 263.501 104.996 262.439 110.044C261.575 114.167 260.66 118.286 259.779 122.405C258.626 127.81 257.506 133.219 256.347 138.624C255.608 142.065 254.778 145.489 254.119 148.943C253.966 149.734 253.675 149.738 253.085 149.738C244.997 149.729 236.916 149.712 228.823 149.755C227.857 149.76 227.766 149.368 227.931 148.638C229.017 143.768 230.136 138.902 231.182 134.022C232.325 128.696 233.387 123.357 234.507 118.026C236.194 109.97 237.871 101.915 239.599 93.8732C240.906 87.7946 242.378 81.7471 243.588 75.652C244.264 72.2279 244.986 68.8039 245.253 65.2897C245.396 63.3863 245.259 61.5789 244.884 59.7845C244.304 57.0082 242.44 55.6308 239.883 55.1181C234.66 54.0756 230.182 55.5657 226.636 59.5369C224.163 62.3047 222.697 65.6412 221.538 69.1255C220.134 73.3744 219.464 77.7888 218.498 82.1379C217.713 85.6965 216.963 89.2589 216.207 92.8219C215.269 97.2275 214.343 101.633 213.411 106.039C211.712 114.089 210.03 122.144 208.319 130.191C206.983 136.473 205.602 142.752 204.279 149.038C204.125 149.764 203.682 149.729 203.17 149.729C201.096 149.729 199.022 149.729 196.947 149.729C190.935 149.729 184.922 149.724 178.91 149.734C178.148 149.734 177.79 149.82 178.04 148.69C179.415 142.374 180.791 136.056 182.121 129.725C183.803 121.714 185.513 113.707 187.218 105.7C188.821 98.1747 190.418 90.6451 192.037 83.1245C193.566 76.0035 195.038 68.8692 196.595 61.7483C198.044 55.1096 199.323 48.4318 200.732 41.7801C200.977 40.6203 201.324 39.4775 201.465 38.2956C201.551 37.5482 202.073 37.6219 202.585 37.6219C205.676 37.6219 208.768 37.6219 211.86 37.6219C216.77 37.6219 221.68 37.6219 226.59 37.6219C227.016 37.631 227.431 37.631 227.857 37.631Z" fill="white"/>
<path d="M539.907 76.8549C535.929 76.8549 531.945 76.8245 527.967 76.8765C526.933 76.8898 526.774 76.5593 526.984 75.6387C527.91 71.6455 528.921 67.6619 529.632 63.6294C529.95 61.7828 530.036 59.7454 529.098 57.9816C527.91 55.7526 525.722 55.0574 523.386 54.8534C518.476 54.4274 515.316 57.0649 512.935 60.9448C510.6 64.7422 509.548 68.9993 508.61 73.2925C507.826 76.8981 507.03 80.5042 506.252 84.1148C505.172 89.1288 504.098 94.1422 503.024 99.1606C502.217 102.932 501.427 106.707 500.631 110.483C499.643 115.136 498.392 119.759 498.722 124.581C498.893 127.145 499.5 129.63 501.717 131.233C504.325 133.119 507.854 133.014 510.77 131.003C513.589 129.057 515.01 126.128 516.232 123.078C518.175 118.208 518.925 113.038 520.045 107.958C520.147 107.476 520.301 107.012 520.334 106.504C520.369 105.991 520.681 105.686 521.346 105.691C529.558 105.721 537.77 105.712 545.982 105.704C546.613 105.704 546.641 105.778 546.516 106.46C545.442 112.229 544.408 118.017 542.612 123.608C540.856 129.066 538.344 134.179 534.633 138.65C531.098 142.903 526.921 146.301 521.858 148.582C518.351 150.163 514.686 151.145 510.889 151.81C506.514 152.579 502.109 152.709 497.722 152.479C492.278 152.197 486.998 151.08 482.326 148.013C477.235 144.667 474.529 139.827 473.279 133.996C472.483 130.317 472.387 126.61 472.586 122.909C472.802 118.751 473.552 114.641 474.415 110.562C475.501 105.465 476.535 100.355 477.627 95.2588C478.672 90.3672 479.814 85.4922 480.826 80.5911C481.746 76.0904 482.616 71.5846 483.963 67.1835C485.719 61.4661 488.106 56.0523 491.567 51.1298C496.659 43.9002 503.405 39.0904 511.935 36.5793C517.987 34.798 524.148 34.6592 530.319 34.9198C535.031 35.1198 539.674 36.0886 543.942 38.1912C547.778 40.0769 550.756 42.8923 552.904 46.6549C555.592 51.3644 556.166 56.4433 555.819 61.6616C555.524 66.0536 554.341 70.3291 553.416 74.6261C552.927 76.8898 552.847 76.872 550.574 76.872C547.016 76.8549 543.459 76.8549 539.907 76.8549Z" fill="white"/>
<path d="M358.516 43.4702C359.164 41.5631 359.13 39.482 360.016 37.6355C363.062 37.6355 366.114 37.5873 369.161 37.657C370.081 37.6786 370.439 37.4049 370.621 36.5227C371.45 32.4218 372.343 28.3333 373.212 24.2363C374.025 20.426 374.832 16.6111 375.645 12.8009C376.02 11.0326 376.486 9.28182 376.724 7.49593C376.827 6.72255 377.162 6.75294 377.685 6.75294C381.237 6.75732 384.794 6.75732 388.352 6.75732C393.257 6.75732 398.167 6.75732 403.134 6.75732C401.452 14.482 399.769 22.1376 398.127 29.7974C397.621 32.126 397.275 34.4898 396.706 36.8009C396.507 37.6264 396.763 37.6355 397.376 37.6355C400.337 37.6264 403.304 37.6701 406.265 37.6094C407.276 37.5873 407.367 37.9743 407.191 38.7998C406.009 44.2521 404.821 49.7049 403.713 55.1703C403.463 56.4173 403.065 56.9867 401.627 56.9085C398.928 56.7561 396.212 56.8824 393.507 56.8564C392.722 56.8473 392.392 56.9907 392.217 57.9165C391.364 62.3477 390.364 66.7489 389.421 71.1634C388.329 76.2598 387.249 81.3563 386.164 86.4528C385.283 90.5843 384.391 94.7164 383.516 98.8523C382.527 103.51 381.561 108.168 380.572 112.825C379.788 116.513 378.992 120.202 378.179 123.891C377.895 125.185 377.981 126.489 378.094 127.775C378.196 128.913 378.952 129.691 380.095 129.995C382.083 130.525 384.084 130.777 386.13 130.291C386.607 130.178 387.13 130.274 387.636 130.274C386.374 136.334 385.102 142.308 383.891 148.295C383.453 150.481 383.328 150.546 381.084 150.781C378.156 151.089 375.23 151.119 372.303 151.306C367.183 151.636 362.182 151.289 357.368 149.469C353.009 147.822 350.145 144.363 349.787 139.432C349.486 135.309 350.435 131.416 351.242 127.475C352.196 122.813 353.18 118.156 354.163 113.498C355.032 109.406 355.919 105.313 356.788 101.22C357.948 95.7632 359.09 90.3019 360.266 84.8451C361.414 79.5139 362.625 74.1916 363.767 68.8603C364.614 64.8894 365.393 60.9012 366.217 56.8694C362.812 56.8694 359.385 56.8694 355.953 56.8694C355.982 56.3567 355.749 55.8093 356.164 55.3532C356.402 54.1843 356.907 53.0631 356.737 51.8296C357.289 50.2568 357.277 48.5445 357.942 47.0023C358.175 45.8249 358.681 44.7043 358.516 43.4702Z" fill="white"/>
<path d="M177.727 37.6309C181.751 37.6309 185.775 37.6485 189.793 37.6178C190.673 37.6093 190.901 37.7136 190.673 38.7301C189.384 44.5217 188.224 50.3434 186.997 56.1526C186.127 60.2756 185.206 64.3894 184.331 68.5133C183.348 73.1574 182.393 77.811 181.404 82.4551C180.529 86.5784 179.626 90.6972 178.751 94.8159C177.597 100.221 176.466 105.626 175.312 111.03C174.437 115.154 173.539 119.272 172.658 123.396C171.675 128.04 170.703 132.689 169.726 137.333C168.885 141.34 168.027 145.341 167.191 149.347C167.066 149.955 166.606 149.712 166.299 149.712C163.037 149.733 159.781 149.724 156.519 149.724C151.733 149.724 146.948 149.694 142.163 149.746C140.987 149.76 140.93 149.433 141.163 148.369C142.282 143.334 143.266 138.268 144.328 133.219C145.249 128.813 146.204 124.412 147.153 120.011C147.977 116.17 148.829 112.338 149.653 108.497C150.466 104.696 151.267 100.889 152.068 97.0885C153.046 92.44 154.018 87.7946 154.99 83.146C155.842 79.1008 156.678 75.0518 157.541 71.0066C158.542 66.367 159.571 61.7352 160.576 57.0954C161.935 50.8562 163.316 44.626 164.588 38.3692C164.765 37.5176 165.139 37.6263 165.662 37.6263C169.686 37.6309 173.704 37.6309 177.727 37.6309Z" fill="white"/>
<path d="M198.902 0.179402C197.561 6.35322 196.225 12.453 194.912 18.5574C194.605 19.9999 194.389 21.46 194.1 22.9065C193.968 23.5756 193.73 23.9972 192.826 23.9926C184.791 23.9451 176.755 23.9581 168.713 23.9756C167.861 23.9756 167.582 23.9144 167.815 22.8719C168.947 17.9273 169.946 12.9572 170.993 7.99566C171.498 5.5929 172.021 3.19897 172.51 0.791991C172.68 -0.029165 173.299 0.179397 173.811 0.179397C180.323 0.170661 186.837 0.175029 193.349 0.175029C195.174 0.179397 196.992 0.179402 198.902 0.179402Z" fill="white"/>
<path d="M366.45 0.431425C359.886 0.431425 353.322 0.431425 346.764 0.431425C345.235 0.431425 343.712 0.422709 342.189 0.440097C341.899 0.444466 341.507 0.274995 341.45 0.844184C341.325 2.03028 340.967 3.16861 340.717 4.32864C339.063 12.1402 337.5 19.9699 335.846 27.7814C334.426 34.5028 332.92 41.2067 331.442 47.9496C331.3 47.6193 331.135 47.3371 331.05 47.0283C329.862 42.4707 327.152 39.1256 322.935 37.0354C320.633 35.8972 318.161 35.3629 315.598 35.0632C312.324 34.6807 309.051 34.6677 305.823 35.172C302.368 35.7147 299.089 36.8966 296.065 38.7041C292.689 40.72 289.786 43.2572 287.331 46.3162C285.29 48.8579 283.739 51.6863 282.357 54.6189C280.238 59.1023 278.692 63.7816 277.442 68.5609C276.322 72.8364 275.441 77.1677 274.584 81.5041C273.771 85.5925 272.731 89.6377 271.856 93.7171C270.617 99.5216 269.537 105.361 268.202 111.148C266.917 116.735 265.951 122.37 265.542 128.075C265.28 131.685 265.428 135.322 266.252 138.893C267.661 144.998 271.481 148.891 277.288 151.015C282.023 152.748 286.921 152.923 291.814 152.209C297.475 151.385 302.311 148.752 306.425 144.785C308.534 142.756 310.403 140.536 312.336 137.889C311.529 141.661 310.847 145.067 310.057 148.447C309.824 149.451 309.955 149.76 311.052 149.755C319.053 149.716 327.049 149.72 335.057 149.755C335.818 149.76 336.187 149.525 336.335 148.83C337.029 145.584 337.722 142.343 338.404 139.097C339.381 134.453 340.353 129.804 341.342 125.159C342.132 121.436 342.95 117.717 343.735 113.994C344.565 110.109 345.366 106.221 346.201 102.341C347.15 97.9013 348.128 93.4646 349.071 89.0203C350.139 83.9715 351.168 78.9188 352.219 73.8705C353.026 70.0252 353.839 66.1798 354.669 62.3392C355.066 60.5058 355.527 58.6853 355.953 56.8603C356.328 56.4133 356.288 55.8308 356.436 55.3141C356.595 54.1713 356.891 53.0546 357.078 51.9163C357.562 50.2913 357.737 48.5967 358.209 46.9677C358.38 45.8294 358.664 44.7127 358.857 43.5744C359.278 41.6022 359.897 39.6644 360.011 37.6355C360.647 34.5941 361.266 31.5481 361.914 28.5112C362.79 24.3881 363.694 20.2696 364.569 16.146C365.665 10.9413 366.745 5.73632 367.854 0.431429C367.365 0.431429 366.904 0.431425 366.45 0.431425ZM325.611 75.5251C324.821 79.4136 323.986 83.2939 323.162 87.1779C322.401 90.8234 321.65 94.4689 320.866 98.1093C319.866 102.745 318.883 107.39 317.82 112.012C316.684 116.926 315.166 121.71 312.233 125.911C309.443 129.917 305.818 132.576 300.685 132.506C296.275 132.45 293.911 130.352 292.922 126.341C292.61 125.06 292.707 123.774 292.656 121.936C292.462 119.094 293.411 115.853 294.053 112.582C294.985 107.885 295.992 103.206 297.003 98.5268C298.065 93.608 299.191 88.7076 300.248 83.7894C301.14 79.6268 301.992 75.456 302.834 71.2807C303.379 68.5526 304.021 65.8239 305.209 63.3211C308.023 57.3952 312.194 54.3322 319.07 54.8705C323.299 55.2008 325.663 57.9946 326.475 61.8049C327.481 66.4799 326.526 70.9984 325.611 75.5251Z" fill="white"/>
<path d="M477.399 52.0856C476.45 46.077 473.16 41.9188 467.846 39.0904C462.533 36.262 456.775 35.241 450.911 34.9153C445.807 34.6331 440.675 34.6722 435.589 35.5889C431.31 36.3623 427.178 37.5873 423.308 39.5295C417.932 42.2276 413.357 45.9903 409.714 50.7734C404.758 57.2733 401.656 64.6679 399.655 72.523C398.61 76.6113 397.717 80.7434 396.882 84.8844C396.064 88.9505 395.132 92.9869 394.33 97.0536C393.381 101.846 392.228 106.599 391.404 111.417C390.858 114.645 390.432 117.891 390.278 121.145C390.159 123.73 390.159 126.329 390.432 128.935C390.681 131.29 391.091 133.58 391.773 135.83C393.37 141.096 396.626 145.071 401.383 147.809C407.202 151.154 413.658 152.131 420.211 152.471C423.308 152.631 426.434 152.631 429.554 152.319C432.037 152.07 434.503 151.736 436.902 151.137C443.21 149.564 448.876 146.683 453.684 142.296C457.145 139.141 459.878 135.382 462.106 131.282C465.391 125.246 467.511 118.803 468.869 112.03C460.407 112.03 451.945 112.034 443.483 112.021C442.852 112.021 442.687 112.281 442.528 112.89C441.829 115.628 441.448 118.447 440.511 121.123C439.397 124.312 437.919 127.306 435.208 129.474C431.776 132.224 427.837 132.945 423.518 132.303C419.08 131.642 416.159 128.727 415.892 124.295C415.67 120.659 416.238 117.091 417.022 113.551C417.988 109.189 419.035 104.839 419.904 100.455C420.114 99.4042 420.416 99.0997 421.461 99.1041C437.714 99.1346 453.968 99.1257 470.227 99.1257C470.568 99.1257 470.903 99.1175 471.239 99.1257C471.597 99.139 471.71 99.0134 471.79 98.6346C472.352 95.8583 473.035 93.1087 473.54 90.3235C474.512 84.9447 475.791 79.6312 476.694 74.2353C477.417 69.89 477.831 65.5282 478.098 61.1488C478.28 58.1164 477.871 55.0965 477.399 52.0856ZM451.695 69.8082C451.172 72.5452 450.467 75.2517 449.967 77.9931C449.814 78.8274 449.433 78.8883 448.779 78.8883C444.886 78.875 440.988 78.8839 437.101 78.8839C433.333 78.8839 429.565 78.8534 425.797 78.901C424.814 78.9143 424.45 78.8839 424.735 77.6676C425.718 73.566 426.445 69.404 427.826 65.402C428.695 62.8696 429.781 60.406 431.565 58.3901C433.185 56.5521 435.418 55.5226 437.811 55.1356C441.289 54.5753 444.762 54.5968 448.165 55.8223C450.666 56.726 451.996 58.4292 452.496 60.9969C453.081 64.0291 452.246 66.9012 451.695 69.8082Z" fill="white"/>
<path d="M136.864 194.773V167.746H146.486C149.413 167.746 151.857 168.355 153.817 169.573C155.777 170.766 157.241 172.39 158.208 174.446C159.201 176.476 159.697 178.735 159.697 181.222C159.697 183.963 159.15 186.348 158.055 188.378C156.986 190.408 155.459 191.982 153.473 193.098C151.488 194.215 149.159 194.773 146.486 194.773H136.864ZM155.344 181.222C155.344 179.318 154.988 177.644 154.275 176.197C153.588 174.725 152.582 173.583 151.259 172.771C149.961 171.934 148.37 171.515 146.486 171.515H141.141V191.005H146.486C148.395 191.005 149.999 190.573 151.297 189.711C152.621 188.848 153.626 187.68 154.313 186.208C155.001 184.737 155.344 183.074 155.344 181.222Z" fill="white"/>
<path d="M173.855 195.154C172.302 195.154 170.89 194.888 169.617 194.355C168.37 193.796 167.288 193.048 166.371 192.109C165.455 191.144 164.742 190.053 164.233 188.835C163.75 187.592 163.508 186.272 163.508 184.876C163.508 182.998 163.941 181.285 164.806 179.737C165.671 178.164 166.881 176.908 168.433 175.969C169.986 175.004 171.806 174.522 173.893 174.522C175.981 174.522 177.775 175.004 179.277 175.969C180.804 176.908 181.988 178.151 182.828 179.699C183.668 181.247 184.088 182.909 184.088 184.686C184.088 184.99 184.075 185.282 184.05 185.561C184.024 185.815 183.999 186.031 183.973 186.208H167.975C168.051 187.376 168.37 188.404 168.93 189.292C169.515 190.155 170.253 190.84 171.144 191.347C172.035 191.83 172.99 192.071 174.008 192.071C175.128 192.071 176.184 191.792 177.177 191.233C178.195 190.675 178.882 189.939 179.239 189.025L182.828 190.053C182.395 191.018 181.733 191.893 180.842 192.68C179.977 193.441 178.946 194.05 177.75 194.507C176.553 194.938 175.255 195.154 173.855 195.154ZM167.861 183.43H179.926C179.85 182.288 179.519 181.285 178.933 180.422C178.373 179.534 177.648 178.849 176.757 178.367C175.891 177.859 174.924 177.605 173.855 177.605C172.811 177.605 171.844 177.859 170.953 178.367C170.088 178.849 169.375 179.534 168.815 180.422C168.255 181.285 167.937 182.288 167.861 183.43Z" fill="white"/>
<path d="M195.761 195.154C194.081 195.154 192.49 194.888 190.988 194.355C189.486 193.796 188.201 192.972 187.132 191.88L188.697 189.063C189.843 190.079 190.988 190.814 192.134 191.271C193.305 191.728 194.463 191.956 195.608 191.956C196.779 191.956 197.734 191.741 198.472 191.309C199.21 190.853 199.579 190.193 199.579 189.33C199.579 188.695 199.388 188.226 199.006 187.921C198.625 187.617 198.065 187.35 197.326 187.122C196.614 186.894 195.748 186.64 194.73 186.361C193.305 185.929 192.108 185.485 191.141 185.028C190.174 184.546 189.448 183.963 188.965 183.277C188.481 182.592 188.239 181.717 188.239 180.651C188.239 179.356 188.57 178.253 189.232 177.339C189.894 176.425 190.81 175.727 191.981 175.245C193.177 174.763 194.552 174.522 196.105 174.522C197.555 174.522 198.892 174.75 200.114 175.207C201.361 175.639 202.455 176.324 203.397 177.263L201.603 180.042C200.712 179.23 199.795 178.633 198.854 178.253C197.937 177.872 196.945 177.682 195.875 177.682C195.265 177.682 194.679 177.758 194.119 177.91C193.559 178.037 193.088 178.291 192.706 178.671C192.35 179.027 192.172 179.534 192.172 180.194C192.172 180.727 192.325 181.158 192.63 181.488C192.935 181.818 193.394 182.097 194.005 182.326C194.615 182.554 195.366 182.808 196.257 183.087C197.81 183.544 199.134 184.001 200.228 184.457C201.323 184.889 202.163 185.46 202.748 186.17C203.359 186.856 203.665 187.807 203.665 189.025C203.665 190.954 202.939 192.464 201.488 193.555C200.063 194.621 198.154 195.154 195.761 195.154Z" fill="white"/>
<path d="M208.561 194.773V174.865H212.761V194.773H208.561ZM208.561 171.591V166.985H212.761V171.591H208.561Z" fill="white"/>
<path d="M226.857 194.964C225.508 194.964 224.273 194.697 223.153 194.164C222.033 193.606 221.066 192.857 220.251 191.918C219.462 190.979 218.839 189.901 218.381 188.683C217.948 187.465 217.731 186.183 217.731 184.838C217.731 183.417 217.961 182.085 218.419 180.841C218.877 179.598 219.513 178.506 220.328 177.567C221.168 176.603 222.148 175.854 223.268 175.321C224.388 174.789 225.635 174.522 227.01 174.522C228.613 174.522 230.013 174.903 231.21 175.664C232.431 176.425 233.437 177.415 234.226 178.633V174.865H237.93V194.202C237.93 196.131 237.459 197.768 236.517 199.113C235.601 200.458 234.341 201.486 232.737 202.196C231.133 202.907 229.326 203.262 227.315 203.262C225.101 203.262 223.268 202.882 221.817 202.12C220.366 201.359 219.131 200.318 218.113 198.999L220.481 196.791C221.244 197.857 222.224 198.669 223.421 199.227C224.642 199.785 225.941 200.065 227.315 200.065C228.461 200.065 229.517 199.849 230.484 199.418C231.477 199.011 232.266 198.364 232.851 197.476C233.437 196.613 233.73 195.522 233.73 194.202V191.157C233.017 192.35 232.037 193.289 230.79 193.974C229.542 194.634 228.231 194.964 226.857 194.964ZM228.231 191.576C228.868 191.576 229.479 191.474 230.064 191.271C230.65 191.043 231.184 190.751 231.668 190.396C232.177 190.015 232.61 189.596 232.966 189.14C233.322 188.657 233.577 188.15 233.73 187.617V182.402C233.399 181.539 232.928 180.79 232.317 180.156C231.706 179.496 231.019 178.989 230.255 178.633C229.491 178.278 228.715 178.1 227.926 178.1C227.01 178.1 226.182 178.303 225.444 178.709C224.731 179.09 224.121 179.61 223.611 180.27C223.102 180.905 222.708 181.628 222.428 182.44C222.148 183.252 222.008 184.089 222.008 184.952C222.008 185.866 222.161 186.716 222.466 187.503C222.797 188.289 223.242 189 223.802 189.634C224.362 190.243 225.024 190.726 225.788 191.081C226.551 191.411 227.366 191.576 228.231 191.576Z" fill="white"/>
<path d="M262.019 194.773H257.819V183.62C257.819 181.767 257.513 180.41 256.902 179.547C256.317 178.684 255.439 178.253 254.268 178.253C253.453 178.253 252.639 178.456 251.824 178.862C251.035 179.268 250.322 179.826 249.686 180.537C249.05 181.222 248.591 182.021 248.311 182.935V194.773H244.111V174.865H247.93V178.862C248.439 177.973 249.1 177.212 249.915 176.578C250.755 175.918 251.697 175.41 252.74 175.055C253.784 174.7 254.891 174.522 256.062 174.522C257.259 174.522 258.239 174.738 259.002 175.169C259.791 175.601 260.402 176.197 260.835 176.958C261.293 177.694 261.599 178.557 261.751 179.547C261.93 180.511 262.019 181.539 262.019 182.63V194.773Z" fill="white"/>
<path d="M301.412 167.746V194.773H297.098V182.859H283.429V194.773H279.152V167.746H283.429V179.052H297.098V167.746H301.412Z" fill="white"/>
<path d="M316.776 195.154C315.198 195.154 313.785 194.888 312.538 194.355C311.29 193.796 310.209 193.035 309.292 192.071C308.401 191.106 307.714 190.015 307.23 188.797C306.747 187.553 306.505 186.234 306.505 184.838C306.505 183.442 306.747 182.123 307.23 180.879C307.714 179.636 308.401 178.544 309.292 177.605C310.209 176.641 311.29 175.892 312.538 175.36C313.81 174.801 315.223 174.522 316.776 174.522C318.329 174.522 319.729 174.801 320.976 175.36C322.249 175.892 323.33 176.641 324.221 177.605C325.138 178.544 325.838 179.636 326.321 180.879C326.805 182.123 327.047 183.442 327.047 184.838C327.047 186.234 326.805 187.553 326.321 188.797C325.838 190.015 325.138 191.106 324.221 192.071C323.33 193.035 322.249 193.796 320.976 194.355C319.729 194.888 318.329 195.154 316.776 195.154ZM310.819 184.876C310.819 186.145 311.087 187.287 311.621 188.302C312.156 189.317 312.869 190.117 313.759 190.7C314.65 191.284 315.656 191.576 316.776 191.576C317.87 191.576 318.863 191.284 319.754 190.7C320.67 190.091 321.396 189.279 321.93 188.264C322.465 187.224 322.732 186.082 322.732 184.838C322.732 183.569 322.465 182.427 321.93 181.412C321.396 180.397 320.67 179.598 319.754 179.014C318.863 178.405 317.87 178.1 316.776 178.1C315.656 178.1 314.65 178.405 313.759 179.014C312.869 179.623 312.156 180.435 311.621 181.45C311.087 182.44 310.819 183.582 310.819 184.876Z" fill="white"/>
<path d="M331.727 187.046V174.865H335.927V186.208C335.927 187.985 336.245 189.33 336.881 190.243C337.543 191.132 338.497 191.576 339.745 191.576C340.534 191.576 341.297 191.411 342.036 191.081C342.799 190.751 343.487 190.269 344.097 189.634C344.734 188.975 345.243 188.188 345.625 187.274V174.865H349.825V190.053C349.825 190.535 349.914 190.878 350.092 191.081C350.27 191.284 350.563 191.398 350.97 191.424V194.773C350.538 194.85 350.181 194.9 349.901 194.926C349.621 194.951 349.354 194.964 349.099 194.964C348.336 194.964 347.699 194.761 347.19 194.355C346.681 193.923 346.388 193.378 346.312 192.718L346.236 190.738C345.345 192.185 344.187 193.289 342.761 194.05C341.336 194.786 339.77 195.154 338.065 195.154C335.977 195.154 334.399 194.469 333.33 193.098C332.261 191.728 331.727 189.711 331.727 187.046Z" fill="white"/>
<path d="M363.432 195.154C361.752 195.154 360.161 194.888 358.659 194.355C357.157 193.796 355.872 192.972 354.803 191.88L356.368 189.063C357.514 190.079 358.659 190.814 359.805 191.271C360.975 191.728 362.134 191.956 363.279 191.956C364.45 191.956 365.405 191.741 366.143 191.309C366.881 190.853 367.25 190.193 367.25 189.33C367.25 188.695 367.059 188.226 366.677 187.921C366.295 187.617 365.735 187.35 364.997 187.122C364.285 186.894 363.419 186.64 362.401 186.361C360.975 185.929 359.779 185.485 358.812 185.028C357.845 184.546 357.119 183.963 356.635 183.277C356.152 182.592 355.91 181.717 355.91 180.651C355.91 179.356 356.241 178.253 356.903 177.339C357.565 176.425 358.481 175.727 359.652 175.245C360.848 174.763 362.223 174.522 363.775 174.522C365.226 174.522 366.563 174.75 367.785 175.207C369.032 175.639 370.126 176.324 371.068 177.263L369.274 180.042C368.383 179.23 367.466 178.633 366.525 178.253C365.608 177.872 364.615 177.682 363.546 177.682C362.935 177.682 362.35 177.758 361.79 177.91C361.23 178.037 360.759 178.291 360.377 178.671C360.021 179.027 359.843 179.534 359.843 180.194C359.843 180.727 359.995 181.158 360.301 181.488C360.606 181.818 361.065 182.097 361.675 182.326C362.286 182.554 363.037 182.808 363.928 183.087C365.481 183.544 366.805 184.001 367.899 184.457C368.994 184.889 369.834 185.46 370.419 186.17C371.03 186.856 371.335 187.807 371.335 189.025C371.335 190.954 370.61 192.464 369.159 193.555C367.734 194.621 365.825 195.154 363.432 195.154Z" fill="white"/>
<path d="M385.28 195.154C383.727 195.154 382.314 194.888 381.042 194.355C379.794 193.796 378.713 193.048 377.796 192.109C376.88 191.144 376.167 190.053 375.658 188.835C375.174 187.592 374.933 186.272 374.933 184.876C374.933 182.998 375.365 181.285 376.231 179.737C377.096 178.164 378.305 176.908 379.858 175.969C381.411 175.004 383.231 174.522 385.318 174.522C387.405 174.522 389.2 175.004 390.702 175.969C392.229 176.908 393.413 178.151 394.253 179.699C395.093 181.247 395.513 182.909 395.513 184.686C395.513 184.99 395.5 185.282 395.474 185.561C395.449 185.815 395.424 186.031 395.398 186.208H379.4C379.476 187.376 379.794 188.404 380.354 189.292C380.94 190.155 381.678 190.84 382.569 191.347C383.46 191.83 384.414 192.071 385.433 192.071C386.553 192.071 387.609 191.792 388.602 191.233C389.62 190.675 390.307 189.939 390.664 189.025L394.253 190.053C393.82 191.018 393.158 191.893 392.267 192.68C391.402 193.441 390.371 194.05 389.174 194.507C387.978 194.938 386.68 195.154 385.28 195.154ZM379.285 183.43H391.351C391.274 182.288 390.944 181.285 390.358 180.422C389.798 179.534 389.073 178.849 388.182 178.367C387.316 177.859 386.349 177.605 385.28 177.605C384.236 177.605 383.269 177.859 382.378 178.367C381.513 178.849 380.8 179.534 380.24 180.422C379.68 181.285 379.362 182.288 379.285 183.43Z" fill="white"/>
<path d="M429.067 194.773L416.047 181.031C414.952 179.864 414.087 178.874 413.451 178.062C412.814 177.25 412.356 176.502 412.076 175.816C411.796 175.131 411.656 174.421 411.656 173.685C411.656 172.441 411.962 171.35 412.572 170.411C413.209 169.472 414.074 168.736 415.169 168.203C416.263 167.67 417.485 167.404 418.834 167.404C420.082 167.404 421.227 167.632 422.271 168.089C423.314 168.52 424.154 169.167 424.791 170.03C425.427 170.868 425.745 171.908 425.745 173.152C425.745 174.319 425.44 175.372 424.829 176.311C424.218 177.25 423.403 178.113 422.385 178.9C421.367 179.686 420.234 180.46 418.987 181.222C418.02 181.856 417.142 182.491 416.352 183.125C415.563 183.734 414.94 184.394 414.482 185.105C414.049 185.79 413.832 186.564 413.832 187.427C413.832 188.289 414.074 189.063 414.558 189.749C415.042 190.408 415.691 190.929 416.505 191.309C417.32 191.665 418.211 191.842 419.178 191.842C420.374 191.842 421.507 191.563 422.576 191.005C423.645 190.447 424.6 189.66 425.44 188.645C426.28 187.604 426.929 186.386 427.387 184.99C427.871 183.595 428.112 182.072 428.112 180.422H431.549C431.549 182.656 431.192 184.673 430.48 186.475C429.792 188.277 428.851 189.825 427.654 191.119C426.483 192.413 425.122 193.416 423.569 194.126C422.042 194.811 420.425 195.154 418.72 195.154C416.963 195.154 415.411 194.811 414.062 194.126C412.712 193.416 411.656 192.477 410.892 191.309C410.154 190.142 409.785 188.835 409.785 187.389C409.785 185.967 410.103 184.737 410.74 183.696C411.402 182.63 412.242 181.691 413.26 180.879C414.303 180.042 415.347 179.293 416.391 178.633C417.511 177.923 418.478 177.301 419.292 176.768C420.107 176.21 420.743 175.651 421.202 175.093C421.66 174.509 421.889 173.888 421.889 173.228C421.889 172.416 421.596 171.769 421.011 171.286C420.451 170.779 419.725 170.525 418.834 170.525C418.172 170.525 417.587 170.665 417.078 170.944C416.594 171.223 416.212 171.591 415.932 172.048C415.652 172.505 415.512 173.012 415.512 173.57C415.512 173.951 415.614 174.344 415.818 174.75C416.022 175.131 416.403 175.639 416.963 176.273C417.523 176.882 418.3 177.72 419.292 178.785L434.603 194.773H429.067Z" fill="white"/>
<path d="M449.508 194.773V167.746H453.784V194.773H449.508Z" fill="white"/>
<path d="M469.159 195.154C467.58 195.154 466.168 194.888 464.92 194.355C463.673 193.796 462.591 193.035 461.675 192.071C460.784 191.106 460.097 190.015 459.613 188.797C459.13 187.553 458.888 186.234 458.888 184.838C458.888 183.442 459.13 182.123 459.613 180.879C460.097 179.636 460.784 178.544 461.675 177.605C462.591 176.641 463.673 175.892 464.92 175.36C466.193 174.801 467.606 174.522 469.159 174.522C470.711 174.522 472.111 174.801 473.359 175.36C474.631 175.892 475.713 176.641 476.604 177.605C477.52 178.544 478.22 179.636 478.704 180.879C479.188 182.123 479.429 183.442 479.429 184.838C479.429 186.234 479.188 187.553 478.704 188.797C478.22 190.015 477.52 191.106 476.604 192.071C475.713 193.035 474.631 193.796 473.359 194.355C472.111 194.888 470.711 195.154 469.159 195.154ZM463.202 184.876C463.202 186.145 463.469 187.287 464.004 188.302C464.539 189.317 465.251 190.117 466.142 190.7C467.033 191.284 468.039 191.576 469.159 191.576C470.253 191.576 471.246 191.284 472.137 190.7C473.053 190.091 473.779 189.279 474.313 188.264C474.848 187.224 475.115 186.082 475.115 184.838C475.115 183.569 474.848 182.427 474.313 181.412C473.779 180.397 473.053 179.598 472.137 179.014C471.246 178.405 470.253 178.1 469.159 178.1C468.039 178.1 467.033 178.405 466.142 179.014C465.251 179.623 464.539 180.435 464.004 181.45C463.469 182.44 463.202 183.582 463.202 184.876Z" fill="white"/>
<path d="M500.701 171.515H491.69V194.773H487.375V171.515H478.326V167.746H500.701V171.515Z" fill="white"/>
<path d="M123.454 180.181H4.4541V182.719H123.454V180.181Z" fill="white"/>
<path d="M630.637 180.181H511.637V182.719H630.637V180.181Z" fill="white"/>
</svg>
